<svg id="visual" viewBox="0 0 960 540" width="960" height="540" xmlns="http://www.w3.org/2000/svg" xmlns:xlink="http://www.w3.org/1999/xlink" version="1.1"><rect x="0" y="0" width="960" height="540" fill="#f8fafc"></rect><path d="M0 202L40 224.2C80 246.3 160 290.7 240 306C320 321.3 400 307.7 480 289.7C560 271.7 640 249.3 720 254.7C800 260 880 293 920 309.5L960 326L960 0L920 0C880 0 800 0 720 0C640 0 560 0 480 0C400 0 320 0 240 0C160 0 80 0 40 0L0 0Z" fill="#e2e8f0"></path><path d="M0 131L40 129.7C80 128.3 160 125.7 240 150.7C320 175.7 400 228.3 480 232.8C560 237.3 640 193.7 720 175.7C800 157.7 880 165.3 920 169.2L960 173L960 0L920 0C880 0 800 0 720 0C640 0 560 0 480 0C400 0 320 0 240 0C160 0 80 0 40 0L0 0Z" fill="#c8d8f6"></path><path d="M0 169L40 153.5C80 138 160 107 240 111.3C320 115.7 400 155.3 480 163.5C560 171.7 640 148.3 720 128.3C800 108.3 880 91.7 920 83.3L960 75L960 0L920 0C880 0 800 0 720 0C640 0 560 0 480 0C400 0 320 0 240 0C160 0 80 0 40 0L0 0Z" fill="#b3c7fa"></path><path d="M0 19L40 20.5C80 22 160 25 240 41.7C320 58.3 400 88.7 480 85.8C560 83 640 47 720 50C800 53 880 95 920 116L960 137L960 0L920 0C880 0 800 0 720 0C640 0 560 0 480 0C400 0 320 0 240 0C160 0 80 0 40 0L0 0Z" fill="#a5b4fc"></path></svg>